<?xml version="1.0" standalone="no"?>
<!DOCTYPE svg PUBLIC "-//W3C//DTD SVG 20010904//EN"
 "http://www.w3.org/TR/2001/REC-SVG-20010904/DTD/svg10.dtd">
<svg version="1.0" xmlns="http://www.w3.org/2000/svg"
 width="225.000000pt" height="225.000000pt" viewBox="0 0 225.000000 225.000000"
 preserveAspectRatio="xMidYMid meet">

<g transform="translate(0.000000,225.000000) scale(0.100000,-0.100000)"
fill="#000000" stroke="none">
<path d="M990 2220 c-162 -20 -363 -97 -500 -190 -384 -261 -564 -759 -435
-1204 183 -630 865 -964 1481 -727 176 68 367 213 486 371 69 90 153 265 185
385 24 90 26 117 26 270 0 152 -3 181 -26 268 -84 315 -304 583 -592 722 -187
90 -423 129 -625 105z m380 -166 c168 -43 301 -117 433 -243 265 -253 360
-625 250 -976 -131 -414 -548 -700 -980 -671 -421 28 -768 308 -885 713 -20
67 -23 102 -23 243 0 141 3 177 23 250 103 376 426 657 817 709 100 14 255 3
365 -25z"/>
<path d="M731 1884 c-85 -23 -168 -72 -251 -151 -171 -161 -236 -290 -260
-518 -29 -278 74 -543 293 -753 142 -135 300 -157 450 -63 80 51 129 153 112
232 -4 17 -31 57 -60 89 -132 143 -90 258 139 381 104 56 172 38 210 -53 26
-63 16 -113 -31 -153 -184 -156 -240 -267 -202 -403 20 -72 106 -155 184 -178
117 -34 248 4 383 111 103 80 174 171 237 300 80 162 99 240 99 405 0 165 -16
236 -85 377 -45 91 -60 111 -147 195 -68 65 -118 103 -167 128 -64 32 -78 35
-155 35 -73 0 -92 -4 -135 -27 -55 -29 -119 -88 -139 -127 -44 -86 -22 -170
79 -307 40 -54 33 -127 -17 -181 -47 -51 -234 -143 -289 -143 -12 0 -36 15
-55 34 -26 26 -34 42 -34 69 0 57 15 82 101 174 125 133 170 246 134 340 -36
93 -121 160 -235 187 -78 19 -90 19 -159 0z"/>
</g>
</svg>
