<?xml version="1.0" standalone="no"?>
<!DOCTYPE svg PUBLIC "-//W3C//DTD SVG 20010904//EN"
 "http://www.w3.org/TR/2001/REC-SVG-20010904/DTD/svg10.dtd">
<svg version="1.0" xmlns="http://www.w3.org/2000/svg"
 width="200.000000pt" height="200.000000pt" viewBox="0 0 200.000000 200.000000"
 preserveAspectRatio="xMidYMid meet">

<g transform="translate(0.000000,200.000000) scale(0.100000,-0.100000)"
fill="#000000" stroke="none">
<path d="M2 1448 l4 -553 27 -100 c117 -430 471 -735 910 -784 55 -6 302 -11
577 -11 l481 0 -3 558 c-4 538 -5 560 -26 637 -49 177 -133 336 -243 459 -132
149 -336 267 -547 318 -82 20 -121 21 -635 25 l-548 5 3 -554z m728 167 c0
-129 -1 -235 -3 -235 -1 0 -108 106 -237 235 l-235 235 238 0 237 0 0 -235z
m363 225 c37 -6 104 -22 147 -36 l80 -27 0 -496 0 -496 -220 220 -220 220 0
312 0 313 73 0 c39 0 103 -5 140 -10z m-708 -330 l230 -230 -233 0 -232 0 0
230 c0 127 1 230 3 230 1 0 106 -103 232 -230z m1163 120 c124 -100 247 -309
282 -480 18 -85 20 -137 20 -495 l0 -400 -190 190 -190 190 0 529 c0 502 1
528 18 515 9 -8 37 -30 60 -49z m-558 -725 l225 -225 -496 0 -496 0 -26 78
c-33 99 -47 185 -47 290 l0 82 308 0 307 0 225 -225z m565 -566 l190 -190
-420 4 c-394 3 -425 5 -499 25 -103 29 -246 97 -323 156 -62 47 -183 171 -183
187 0 5 235 9 523 9 l522 0 190 -191z"/>
</g>
</svg>
